<?xml version="1.0" encoding="iso-8859-1"?><!-- Generator: Adobe Illustrator 19.0.0, SVG Export Plug-In . SVG Version: 6.00 Build 0)  -->
<svg version="1.1" id="Capa_1" xmlns="http://www.w3.org/2000/svg"
	xmlns:xlink="http://www.w3.org/1999/xlink" x="0px" y="0px" viewBox="0 0 480 480"
	style="enable-background:new 0 0 480 480;" xml:space="preserve">
<g>
	<circle style="fill:#FDBD40;" cx="240" cy="240" r="232" />
	<circle style="fill:#FDBD40;" cx="240" cy="240" r="232" />
</g>
	<g>
	<path style="fill:#FCF05A;" d="M240,448c-4.418,0-8-3.582-8-8s3.582-8,8-8c105.987-0.123,191.877-86.013,192-192
		c0-4.418,3.582-8,8-8s8,3.582,8,8C447.872,354.822,354.822,447.872,240,448z" />
		<path style="fill:#FCF05A;" d="M40,248c-4.418,0-8-3.582-8-8c0.128-114.822,93.178-207.872,208-208c4.418,0,8,3.582,8,8
		s-3.582,8-8,8C134.012,48.123,48.123,134.012,48,240C48,244.418,44.418,248,40,248z" />
</g>
	<g>
	<path style="fill:#5F79BA;" d="M240,128L240,128c8.837,0,16,7.163,16,16l0,0c0,8.837-7.163,16-16,16l0,0c-8.837,0-16-7.163-16-16
		l0,0C224,135.163,231.163,128,240,128z" />
		<path style="fill:#5F79BA;"
			d="M256,328V192h-64v16c0,4.418,3.582,8,8,8h24v136h64v-16c0-4.418-3.582-8-8-8H256z" />
</g>
	<path d="M240,0C107.452,0,0,107.452,0,240s107.452,240,240,240s240-107.452,240-240C479.85,107.514,372.486,0.15,240,0z M240,464
	C116.288,464,16,363.712,16,240S116.288,16,240,16s224,100.288,224,224C463.859,363.653,363.653,463.859,240,464z" />
	<path d="M240,432c-4.418,0-8,3.582-8,8s3.582,8,8,8c114.822-0.128,207.872-93.178,208-208c0-4.418-3.582-8-8-8s-8,3.582-8,8
	C431.877,345.987,345.987,431.877,240,432z" />
	<path d="M248,40c0-4.418-3.582-8-8-8C125.178,32.128,32.128,125.178,32,240c0,4.418,3.582,8,8,8s8-3.582,8-8
	c0.123-105.988,86.012-191.877,192-192C244.418,48,248,44.418,248,40z" />
	<path d="M216,144c0,13.255,10.745,24,24,24c13.255,0,24-10.745,24-24s-10.745-24-24-24C226.745,120,216,130.745,216,144z M248,144
	c0,4.418-3.582,8-8,8s-8-3.582-8-8s3.582-8,8-8S248,139.582,248,144z" />
	<path d="M296,360v-24c0-8.837-7.163-16-16-16h-16V184h-80v24c0,8.837,7.163,16,16,16h16v136H296z M200,208v-8h48v136h32v8h-48V208
	H200z" />
	<g>
</g>
	<g>
</g>
	<g>
</g>
	<g>
</g>
	<g>
</g>
	<g>
</g>
	<g>
</g>
	<g>
</g>
	<g>
</g>
	<g>
</g>
	<g>
</g>
	<g>
</g>
	<g>
</g>
	<g>
</g>
	<g>
</g>
</svg>
