<svg width="28" height="28" viewBox="0 0 28 28" fill="none" xmlns="http://www.w3.org/2000/svg">
<path d="M21.4375 5.6875H6.5625C6.07925 5.6875 5.6875 6.07925 5.6875 6.5625V25.8125C5.6875 26.2957 6.07925 26.6875 6.5625 26.6875H21.4375C21.9207 26.6875 22.3125 26.2957 22.3125 25.8125V6.5625C22.3125 6.07925 21.9207 5.6875 21.4375 5.6875Z" fill="#E6E7E8"/>
<path d="M20.5625 7.875C20.5632 8.73904 20.3665 9.59183 19.9874 10.3683C19.6083 11.1447 19.0568 11.8242 18.375 12.355C18.2232 12.4737 18.0655 12.5846 17.9025 12.6875C16.9962 13.2591 15.9465 13.5625 14.875 13.5625C13.8035 13.5625 12.7538 13.2591 11.8475 12.6875C11.6845 12.5846 11.5268 12.4737 11.375 12.355C10.5171 11.6855 9.86934 10.7837 9.50872 9.75696C9.14811 8.73017 9.08977 7.62146 9.34063 6.5625C9.41026 6.26325 9.5054 5.97051 9.625 5.6875H20.125C20.2446 5.97051 20.3397 6.26325 20.4094 6.5625C20.5116 6.99249 20.563 7.43301 20.5625 7.875Z" fill="#D8D7DA"/>
<path d="M19.6875 7C19.6882 7.86405 19.4915 8.71684 19.1124 9.49327C18.7333 10.2697 18.1818 10.9492 17.5 11.48C17.3482 11.5987 17.1905 11.7097 17.0275 11.8125C16.1212 12.3841 15.0715 12.6875 14 12.6875C12.9285 12.6875 11.8788 12.3841 10.9725 11.8125C10.8095 11.7097 10.6518 11.5987 10.5 11.48C9.73941 10.8862 9.14241 10.1086 8.76516 9.2205C8.38792 8.33237 8.24284 7.36285 8.34358 6.40319C8.44432 5.44353 8.78756 4.52527 9.34101 3.73483C9.89446 2.94439 10.6399 2.30776 11.5072 1.88484C12.3745 1.46192 13.3352 1.26662 14.2988 1.31732C15.2624 1.36801 16.1973 1.66304 17.0154 2.17463C17.8336 2.68623 18.5081 3.39757 18.9756 4.24172C19.443 5.08587 19.688 6.03507 19.6875 7Z" fill="#FFD422"/>
<path d="M26.6875 8.3125V24.0625C26.6868 24.2944 26.5944 24.5165 26.4305 24.6805C26.2665 24.8444 26.0444 24.9368 25.8125 24.9375H22.3125V7.4375H25.8125C26.0444 7.43819 26.2665 7.5306 26.4305 7.69455C26.5944 7.85849 26.6868 8.08065 26.6875 8.3125Z" fill="#D1D3D4"/>
<path d="M1.3125 24.0625V8.3125C1.31319 8.08065 1.4056 7.85849 1.56955 7.69455C1.73349 7.5306 1.95565 7.43819 2.1875 7.4375H5.6875V24.9375H2.1875C1.95565 24.9368 1.73349 24.8444 1.56955 24.6805C1.4056 24.5165 1.31319 24.2944 1.3125 24.0625Z" fill="#D1D3D4"/>
<path d="M14.6344 5.20188L14.4375 4.8125L14.3325 4.9175C14.0886 5.16198 13.7987 5.35586 13.4796 5.488C13.1605 5.62014 12.8185 5.68794 12.4731 5.6875H12.25V4.8125C12.25 4.34837 12.4344 3.90325 12.7626 3.57506C13.0908 3.24687 13.5359 3.0625 14 3.0625C14.4641 3.0625 14.9092 3.24687 15.2374 3.57506C15.5656 3.90325 15.75 4.34837 15.75 4.8125V5.6875H15.4175C15.2546 5.68797 15.0948 5.64271 14.9564 5.55685C14.8179 5.471 14.7064 5.34801 14.6344 5.20188Z" fill="#57565C"/>
<path d="M14.875 8.75L14 9.625L13.125 8.75V7.63875C13.3907 7.79346 13.6926 7.87498 14 7.87498C14.3074 7.87498 14.6093 7.79346 14.875 7.63875V8.75Z" fill="#FFC477"/>
<path d="M13.125 8.75L14 9.625L12.6875 10.5L12.1231 9.24875L13.125 8.75Z" fill="#1E81CE"/>
<path d="M15.4175 5.6875C15.2546 5.68797 15.0948 5.64271 14.9564 5.55685C14.8179 5.471 14.7064 5.34801 14.6344 5.20188L14.4375 4.8125L14.3325 4.9175C14.0886 5.16198 13.7987 5.35586 13.4796 5.488C13.1605 5.62014 12.8185 5.68794 12.4731 5.6875H12.25V6.125C12.25 6.58913 12.4344 7.03425 12.7626 7.36244C13.0908 7.69063 13.5359 7.875 14 7.875C14.4641 7.875 14.9092 7.69063 15.2374 7.36244C15.5656 7.03425 15.75 6.58913 15.75 6.125V5.6875H15.4175Z" fill="#FFC477"/>
<path d="M15.8769 9.24875L15.3125 10.5L14 9.625L14.875 8.75L15.8769 9.24875Z" fill="#1E81CE"/>
<path d="M16.5331 9.57687L15.8769 9.24875L15.3125 10.5L14 9.625L12.6875 10.5L12.1231 9.24875L11.4669 9.57687C11.1768 9.72316 10.9329 9.94695 10.7622 10.2234C10.5915 10.4999 10.5008 10.8182 10.5 11.1431V11.48C10.6518 11.5987 10.8095 11.7096 10.9725 11.8125C11.8788 12.3841 12.9285 12.6875 14 12.6875C15.0715 12.6875 16.1212 12.3841 17.0275 11.8125C17.1905 11.7096 17.3482 11.5987 17.5 11.48V11.1431C17.4992 10.8182 17.4085 10.4999 17.2378 10.2234C17.0671 9.94695 16.8232 9.72316 16.5331 9.57687Z" fill="#3D9AE2"/>
<path d="M11.4975 21.315C11.7207 21.6367 11.8295 22.024 11.8066 22.4149C11.7837 22.8058 11.6303 23.1777 11.3711 23.4712C11.1118 23.7646 10.7616 23.9627 10.3765 24.0336C9.99144 24.1045 9.59369 24.0442 9.2469 23.8623C8.90012 23.6805 8.62434 23.3876 8.46369 23.0305C8.30304 22.6734 8.26679 22.2727 8.36074 21.8926C8.4547 21.5125 8.67343 21.1748 8.98194 20.9337C9.29046 20.6926 9.67093 20.5619 10.0625 20.5625C10.3446 20.5633 10.6223 20.6321 10.8721 20.7631C11.1219 20.8941 11.3365 21.0834 11.4975 21.315Z" fill="#FF9811"/>
<path d="M11.4975 16.065C11.7207 16.3867 11.8295 16.774 11.8066 17.1649C11.7837 17.5558 11.6303 17.9278 11.3711 18.2212C11.1118 18.5146 10.7616 18.7127 10.3765 18.7836C9.99144 18.8545 9.59369 18.7942 9.2469 18.6123C8.90012 18.4305 8.62434 18.1376 8.46369 17.7805C8.30304 17.4234 8.26679 17.0227 8.36074 16.6426C8.4547 16.2625 8.67343 15.9248 8.98194 15.6837C9.29046 15.4426 9.67093 15.3119 10.0625 15.3125C10.3446 15.3133 10.6223 15.3821 10.8721 15.5131C11.1219 15.6441 11.3365 15.8334 11.4975 16.065Z" fill="#FF9811"/>
<path d="M22.3125 7.4375H23.1875V24.9375H22.3125V7.4375Z" fill="#BCBEC0"/>
<path d="M4.8125 7.4375H5.6875V24.9375H4.8125V7.4375Z" fill="#BCBEC0"/>
<path d="M2.625 10.5H4.375V11.375H2.625V10.5Z" fill="#ACABB1"/>
<path d="M2.625 12.25H4.375V13.125H2.625V12.25Z" fill="#ACABB1"/>
<path d="M2.625 14H4.375V14.875H2.625V14Z" fill="#ACABB1"/>
<path d="M2.625 15.75H4.375V16.625H2.625V15.75Z" fill="#ACABB1"/>
<path d="M2.625 17.5H4.375V18.375H2.625V17.5Z" fill="#ACABB1"/>
<path d="M2.625 19.25H4.375V20.125H2.625V19.25Z" fill="#ACABB1"/>
<path d="M2.625 21H4.375V21.875H2.625V21Z" fill="#ACABB1"/>
<path d="M23.625 10.5H25.375V11.375H23.625V10.5Z" fill="#ACABB1"/>
<path d="M23.625 12.25H25.375V13.125H23.625V12.25Z" fill="#ACABB1"/>
<path d="M23.625 14H25.375V14.875H23.625V14Z" fill="#ACABB1"/>
<path d="M23.625 15.75H25.375V16.625H23.625V15.75Z" fill="#ACABB1"/>
<path d="M23.625 17.5H25.375V18.375H23.625V17.5Z" fill="#ACABB1"/>
<path d="M23.625 19.25H25.375V20.125H23.625V19.25Z" fill="#ACABB1"/>
<path d="M23.625 21H25.375V21.875H23.625V21Z" fill="#ACABB1"/>
<path d="M9.75014 17.1902L11.9373 15.0031L12.5559 15.6217L10.3688 17.8088L9.75014 17.1902Z" fill="#ED1C24"/>
<path d="M16.1875 15.75H19.6875V16.625H16.1875V15.75Z" fill="#C6C5CA"/>
<path d="M14.4375 17.5H19.6875V18.375H14.4375V17.5Z" fill="#C6C5CA"/>
<path d="M9.74971 22.4393L11.9369 20.2522L12.5555 20.8708L10.3683 23.058L9.74971 22.4393Z" fill="#ED1C24"/>
<path d="M14.4375 21H19.6875V21.875H14.4375V21Z" fill="#C6C5CA"/>
<path d="M14.4375 22.75H19.6875V23.625H14.4375V22.75Z" fill="#C6C5CA"/>
<path d="M14.4375 15.75H15.3125V16.625H14.4375V15.75Z" fill="#C6C5CA"/>
</svg>
