<svg width="28" height="28" viewBox="0 0 28 28" fill="none" xmlns="http://www.w3.org/2000/svg">
<g clip-path="url(#clip0)">
<path d="M27.7184 2.95312H22.7071V4.1665C22.7071 4.39893 22.5174 4.5882 22.2841 4.5882H8.52527C8.27383 4.5882 7.875 4.48651 7.65454 4.36646L5.43735 3.15799C5.34549 3.108 5.29294 3.04221 5.29294 2.97748C5.29294 2.96957 5.29379 2.96124 5.29529 2.95312H0.281555C0.126678 2.95312 0 3.08002 0 3.23489V26.3613C0 26.5162 0.126678 26.6431 0.281555 26.6431H27.7184C27.8733 26.6431 28 26.5162 28 26.3613V3.23489C28 3.08002 27.8733 2.95312 27.7184 2.95312Z" fill="#E6E9ED"/>
<path d="M17.1943 21.1933C17.1943 22.9771 15.7639 24.4231 13.9996 24.4231C12.2348 24.4231 10.8042 22.9771 10.8042 21.1933C10.8042 19.4094 12.2348 17.9636 13.9996 17.9636C15.7639 17.9636 17.1943 19.4094 17.1943 21.1933Z" fill="#FFC502"/>
<path d="M12.639 21.1243C12.4126 21.1243 12.2289 20.9406 12.2289 20.7142V20.3816C12.2289 20.1551 12.4126 19.9714 12.639 19.9714C12.8657 19.9714 13.0492 20.1551 13.0492 20.3816V20.7142C13.0492 20.9406 12.8657 21.1243 12.639 21.1243Z" fill="#775436"/>
<path d="M15.3595 21.1243C15.1331 21.1243 14.9493 20.9406 14.9493 20.7142V20.3816C14.9493 20.1551 15.1331 19.9714 15.3595 19.9714C15.5862 19.9714 15.7697 20.1551 15.7697 20.3816V20.7142C15.7697 20.9406 15.5862 21.1243 15.3595 21.1243Z" fill="#775436"/>
<path d="M14.9359 22.6524H13.0626C12.8362 22.6524 12.6525 22.4689 12.6525 22.2422C12.6525 22.0158 12.8362 21.8321 13.0626 21.8321H14.9359C15.1625 21.8321 15.346 22.0158 15.346 22.2422C15.346 22.4689 15.1625 22.6524 14.9359 22.6524Z" fill="#775436"/>
<path d="M9.16379 21.1933C9.16379 22.9771 7.73315 24.4231 5.96884 24.4231C4.2041 24.4231 2.77347 22.9771 2.77347 21.1933C2.77347 19.4094 4.2041 17.9636 5.96884 17.9636C7.73315 17.9636 9.16379 19.4094 9.16379 21.1933Z" fill="#89C947"/>
<path d="M4.60849 21.1243C4.38205 21.1243 4.19833 20.9406 4.19833 20.7142V20.3816C4.19833 20.1551 4.38205 19.9714 4.60849 19.9714C4.83514 19.9714 5.01865 20.1551 5.01865 20.3816V20.7142C5.01865 20.9406 4.83514 21.1243 4.60849 21.1243Z" fill="#368C0E"/>
<path d="M7.32898 21.1243C7.10233 21.1243 6.91882 20.9406 6.91882 20.7142V20.3816C6.91882 20.1551 7.10233 19.9714 7.32898 19.9714C7.55563 19.9714 7.73914 20.1551 7.73914 20.3816V20.7142C7.73914 20.9406 7.55542 21.1243 7.32898 21.1243Z" fill="#368C0E"/>
<path d="M5.96884 23.292C5.18164 23.292 4.5412 22.697 4.5412 21.9656C4.5412 21.7391 4.72491 21.5554 4.95135 21.5554C5.17801 21.5554 5.36151 21.7391 5.36151 21.9656C5.36151 22.2446 5.63409 22.4716 5.96884 22.4716C6.30359 22.4716 6.57596 22.2446 6.57596 21.9656C6.57596 21.7391 6.75946 21.5554 6.98611 21.5554C7.21277 21.5554 7.39627 21.7391 7.39627 21.9656C7.39627 22.697 6.75583 23.292 5.96884 23.292Z" fill="#368C0E"/>
<path d="M25.2263 21.1933C25.2263 22.9771 23.7957 24.4231 22.0312 24.4231C20.2668 24.4231 18.8362 22.9771 18.8362 21.1933C18.8362 19.4094 20.2668 17.9636 22.0312 17.9636C23.7957 17.9636 25.2263 19.4094 25.2263 21.1933Z" fill="#FB8276"/>
<path d="M20.671 21.1243C20.4444 21.1243 20.2609 20.9406 20.2609 20.7142V20.3816C20.2609 20.1551 20.4444 19.9714 20.671 19.9714C20.8977 19.9714 21.0812 20.1551 21.0812 20.3816V20.7142C21.0812 20.9406 20.8977 21.1243 20.671 21.1243Z" fill="#C0272D"/>
<path d="M23.3917 21.1243C23.1651 21.1243 22.9816 20.9406 22.9816 20.7142V20.3816C22.9816 20.1551 23.1651 19.9714 23.3917 19.9714C23.6184 19.9714 23.8019 20.1551 23.8019 20.3816V20.7142C23.8019 20.9406 23.6184 21.1243 23.3917 21.1243Z" fill="#C0272D"/>
<path d="M23.0489 23.1112C22.8222 23.1112 22.6387 22.9275 22.6387 22.7011C22.6387 22.4221 22.3661 22.1952 22.0312 22.1952C21.6964 22.1952 21.4243 22.4221 21.4243 22.7011C21.4243 22.9275 21.2405 23.1112 21.0141 23.1112C20.7874 23.1112 20.6039 22.9275 20.6039 22.7011C20.6039 21.9698 21.2442 21.3749 22.0312 21.3749C22.8186 21.3749 23.459 21.9698 23.459 22.7011C23.459 22.9275 23.2753 23.1112 23.0489 23.1112Z" fill="#C0272D"/>
<path d="M4.85437 9.13303C4.75546 9.23257 4.62366 9.28748 4.48309 9.28748C4.34232 9.28748 4.2103 9.23236 4.11139 9.1326L3.58951 8.60602C3.52264 8.53873 3.48611 8.44922 3.48654 8.35437C3.48697 8.25931 3.52414 8.17023 3.59164 8.10336C3.65872 8.03693 3.74759 8.0004 3.8418 8.0004C3.93729 8.0004 4.02701 8.03778 4.0943 8.10571L4.48309 8.49771L5.98743 6.98184C5.95709 6.95322 5.9165 6.93527 5.87186 6.93527H2.94244C2.84952 6.93527 2.77347 7.01132 2.77347 7.10425V10.0471C2.77347 10.14 2.84952 10.2161 2.94244 10.2161H5.87186C5.96478 10.2161 6.04083 10.14 6.04083 10.0471V7.93716L4.85437 9.13303Z" fill="#FCDB67"/>
<path d="M4.48309 9.34217C4.48288 9.34217 4.48288 9.34217 4.48309 9.34217C4.32757 9.34217 4.18188 9.2815 4.07272 9.17106L3.55062 8.64469C3.39126 8.48383 3.39233 8.22406 3.55319 8.0647C3.71405 7.90512 3.9736 7.90619 4.13318 8.06705L4.48309 8.42017L6.03912 6.85218C6.1987 6.69132 6.45825 6.69025 6.61911 6.84983C6.77975 7.0094 6.78082 7.26917 6.62124 7.42981L4.89303 9.17148C4.78387 9.2815 4.63818 9.34217 4.48309 9.34217Z" fill="#EF5050"/>
<path d="M12.8257 8.2937H7.79126C7.56482 8.2937 7.3811 8.10999 7.3811 7.88354C7.3811 7.65689 7.56482 7.47339 7.79126 7.47339H12.8257C13.0524 7.47339 13.2359 7.65689 13.2359 7.88354C13.2359 8.10999 13.0524 8.2937 12.8257 8.2937Z" fill="#9EA7AF"/>
<path d="M10.6583 9.67798H7.79147C7.56482 9.67798 7.38132 9.49448 7.38132 9.26782C7.38132 9.04138 7.56482 8.85767 7.79147 8.85767H10.6583C10.8847 8.85767 11.0685 9.04138 11.0685 9.26782C11.0685 9.49448 10.8847 9.67798 10.6583 9.67798Z" fill="#9EA7AF"/>
<path d="M6.04083 15.4161C6.04083 15.5092 5.96478 15.5853 5.87186 15.5853H2.94244C2.84952 15.5853 2.77347 15.5092 2.77347 15.4161V12.4734C2.77347 12.3805 2.84952 12.3043 2.94244 12.3043H5.87186C5.96478 12.3043 6.04083 12.3805 6.04083 12.4734V15.4161Z" fill="#FCDB67"/>
<path d="M12.8257 13.6629H7.79126C7.56482 13.6629 7.3811 13.4792 7.3811 13.2527C7.3811 13.0261 7.56482 12.8426 7.79126 12.8426H12.8257C13.0524 12.8426 13.2359 13.0261 13.2359 13.2527C13.2359 13.4792 13.0524 13.6629 12.8257 13.6629Z" fill="#9EA7AF"/>
<path d="M10.6583 15.0472H7.79147C7.56482 15.0472 7.38132 14.8637 7.38132 14.637C7.38132 14.4106 7.56482 14.2269 7.79147 14.2269H10.6583C10.8847 14.2269 11.0685 14.4106 11.0685 14.637C11.0685 14.8635 10.8847 15.0472 10.6583 15.0472Z" fill="#9EA7AF"/>
<path d="M18.4417 10.0471C18.4417 10.14 18.3656 10.2161 18.2727 10.2161H15.3433C15.2501 10.2161 15.1741 10.14 15.1741 10.0471V7.10425C15.1741 7.01132 15.2501 6.93527 15.3433 6.93527H18.2727C18.3656 6.93527 18.4417 7.01132 18.4417 7.10425V10.0471Z" fill="#FCDB67"/>
<path d="M25.2263 8.2937H20.1921C19.9654 8.2937 19.7819 8.10999 19.7819 7.88354C19.7819 7.65689 19.9654 7.47339 20.1921 7.47339H25.2263C25.453 7.47339 25.6365 7.65689 25.6365 7.88354C25.6365 8.10999 25.453 8.2937 25.2263 8.2937Z" fill="#9EA7AF"/>
<path d="M23.0589 9.67798H20.1921C19.9654 9.67798 19.7819 9.49448 19.7819 9.26782C19.7819 9.04138 19.9654 8.85767 20.1921 8.85767H23.0589C23.2853 8.85767 23.4691 9.04138 23.4691 9.26782C23.4691 9.49448 23.2853 9.67798 23.0589 9.67798Z" fill="#9EA7AF"/>
<path d="M18.4417 15.4161C18.4417 15.5092 18.3656 15.5853 18.2727 15.5853H15.3433C15.2501 15.5853 15.1741 15.5092 15.1741 15.4161V12.4734C15.1741 12.3805 15.2501 12.3043 15.3433 12.3043H18.2727C18.3656 12.3043 18.4417 12.3805 18.4417 12.4734V15.4161Z" fill="#FCDB67"/>
<path d="M25.2263 13.6629H20.1921C19.9654 13.6629 19.7819 13.4792 19.7819 13.2527C19.7819 13.0261 19.9654 12.8426 20.1921 12.8426H25.2263C25.453 12.8426 25.6365 13.0261 25.6365 13.2527C25.6365 13.4792 25.453 13.6629 25.2263 13.6629Z" fill="#9EA7AF"/>
<path d="M23.0589 15.0472H20.1921C19.9654 15.0472 19.7819 14.8637 19.7819 14.637C19.7819 14.4106 19.9654 14.2269 20.1921 14.2269H23.0589C23.2853 14.2269 23.4691 14.4106 23.4691 14.637C23.4691 14.8635 23.2853 15.0472 23.0589 15.0472Z" fill="#9EA7AF"/>
<path d="M22.2841 1.3125C22.5468 1.3125 22.7617 1.52676 22.7617 1.78888V4.1665C22.7617 4.42841 22.5468 4.64288 22.2841 4.64288H8.52527C8.26251 4.64288 7.85876 4.53992 7.62827 4.41431L5.41107 3.20605C5.18057 3.08023 5.18057 2.87473 5.41107 2.74911L7.62827 1.54108C7.85876 1.41547 8.26251 1.3125 8.52527 1.3125L22.2841 1.3125Z" fill="#FFC502"/>
<path d="M8.71774 1.3125H8.52527C8.26251 1.3125 7.85876 1.41547 7.62827 1.54108L5.41107 2.74911C5.18057 2.87494 5.18057 3.08044 5.41107 3.20605L7.62827 4.41431C7.85876 4.53992 8.26251 4.64288 8.52527 4.64288H8.71774V1.3125Z" fill="#FFD5B3"/>
<path d="M6.90131 1.93713L5.41107 2.74911C5.18057 2.87494 5.18057 3.08044 5.41107 3.20605L6.90131 4.01825V1.93713Z" fill="#775436"/>
<path d="M22.7617 4.1665V1.78888C22.7617 1.52676 22.5468 1.3125 22.2841 1.3125H19.9913V4.64267H22.2841C22.5468 4.64288 22.7617 4.42841 22.7617 4.1665Z" fill="#FB8276"/>
<path d="M8.71774 2.56754H19.9913V3.38785H8.71774V2.56754Z" fill="#C6A07D"/>
</g>
<defs>
<clipPath id="clip0">
<rect width="28" height="28" fill="white"/>
</clipPath>
</defs>
</svg>
