<svg width="28" height="28" viewBox="0 0 28 28" fill="none" xmlns="http://www.w3.org/2000/svg">
<path d="M24.5 22.75H3.5V13.4167L14 3.5L24.5 13.4167V22.75Z" fill="#E8EAF6"/>
<path d="M22.75 12.25L19.8333 9.33333V5.25H22.75V12.25Z" fill="#C5CAE9"/>
<path d="M3.5 22.75H24.5V25.6667H3.5V22.75Z" fill="#C5CAE9"/>
<path d="M14 2.50834L2.33334 13.3583L3.50001 14.6417L14 4.9L24.5 14.6417L25.6667 13.3583L14 2.50834Z" fill="#B71C1C"/>
<path d="M10.5 16.3333H17.5V25.6667H10.5V16.3333Z" fill="#D84315"/>
<path d="M12.25 9.91666H15.75V13.4167H12.25V9.91666Z" fill="#01579B"/>
<path d="M16.0417 20.7083C15.8667 20.7083 15.75 20.825 15.75 21V22.1667C15.75 22.3417 15.8667 22.4583 16.0417 22.4583C16.2167 22.4583 16.3333 22.3417 16.3333 22.1667V21C16.3333 20.825 16.2167 20.7083 16.0417 20.7083Z" fill="#FF8A65"/>
</svg>
