<svg width="28" height="28" viewBox="0 0 28 28" fill="none" xmlns="http://www.w3.org/2000/svg">
<g clip-path="url(#clip0)">
<path d="M27.9934 26.0141L25.7937 13.8947C25.7718 13.7737 25.6967 13.669 25.5892 13.6092L20.0525 10.5297C19.9807 10.4897 19.9001 10.4738 19.821 10.4799L20.8283 23.4741L20.7945 23.4892L27.4207 26.4619C27.4746 26.486 27.5319 26.4979 27.589 26.4979C27.6793 26.4979 27.7687 26.4682 27.8423 26.4106C27.9625 26.3168 28.0206 26.1641 27.9934 26.0141Z" fill="#44C868"/>
<path d="M14 13.4737L8.3374 10.5243C8.26953 10.4889 8.19428 10.4745 8.12018 10.4795C8.13982 10.4783 8.15956 10.4784 8.17914 10.4799L7.17184 23.4741L13.8318 26.4619C13.8855 26.486 13.9429 26.4979 14 26.4979V13.4737Z" fill="#44C868"/>
<path d="M8.17907 10.48C8.09994 10.4738 8.01938 10.4897 7.94752 10.5297L2.41079 13.6092C2.30327 13.6689 2.22824 13.7737 2.20631 13.8947L0.0066105 26.0141C-0.0206239 26.164 0.0375637 26.3167 0.157712 26.4107C0.231377 26.4682 0.320791 26.4979 0.411025 26.4979C0.468064 26.4979 0.525432 26.4861 0.579299 26.4619L7.16937 23.5054L8.17907 10.48Z" fill="#4CE166"/>
<path d="M19.8209 10.4797C19.7664 10.4839 19.7126 10.4984 19.6626 10.5244L14 13.4737V26.498C14 26.498 14 26.498 14.0001 26.498C14.0572 26.498 14.1146 26.4861 14.1683 26.462L20.8283 23.4741L19.8209 10.4797Z" fill="#4CE166"/>
<path d="M1.53967 17.5675L1.09282 20.0294L7.70969 16.5346L7.86331 14.5528L7.88879 14.2241L1.53967 17.5675Z" fill="#FFDB56"/>
<path d="M7.76924 15.7661L7.70969 16.5346L1.09282 20.0294L0.0066105 26.0141C-0.0206239 26.164 0.0375637 26.3167 0.157712 26.4107C0.231377 26.4683 0.320791 26.4979 0.411025 26.4979C0.468064 26.4979 0.525432 26.4861 0.579299 26.4619L7.16937 23.5054L7.76924 15.7661Z" fill="#A8EEFC"/>
<path d="M14.0017 15.0982L7.8888 14.2241L7.7097 16.5346L14 26.0874V22.6137L10.2464 16.7032L14.0017 17.1523V15.0982Z" fill="#FFBB24"/>
<path d="M25.1534 13.3668L22.4936 11.8874L19.9757 12.4758L20.0072 12.8824L20.1316 14.4866L25.1534 13.3668Z" fill="#FFBB24"/>
<path d="M20.3548 17.3675L20.1164 14.2913L19.9757 12.4758L14.0017 15.0982V17.1523L17.904 15.4554L20.3548 17.3675Z" fill="#FFDB56"/>
<path d="M27.9934 26.0141L27.4409 22.9698L20.1315 14.4866L20.3549 17.3675L27.8509 26.403C27.9649 26.3086 28.0199 26.1603 27.9934 26.0141Z" fill="#FFBB24"/>
<path d="M14.0263 1.502C10.8565 1.502 8.27757 4.07877 8.27757 7.24606C8.27757 9.20529 9.20775 11.3088 11.0424 13.4981C12.3898 15.106 13.7189 16.1402 13.7749 16.1835C13.8489 16.2407 13.9376 16.2693 14.0264 16.2693C14.1151 16.2693 14.2038 16.2407 14.2779 16.1835C14.3338 16.1402 15.663 15.106 17.0104 13.4981C18.845 11.3088 19.7752 9.20535 19.7752 7.24606C19.7751 4.07877 17.1962 1.502 14.0263 1.502ZM16.1553 7.246C16.1553 8.4208 15.2021 9.37324 14.0263 9.37324C12.8505 9.37324 11.8973 8.42086 11.8973 7.246C11.8973 6.07115 12.8505 5.11876 14.0263 5.11876C15.2021 5.11876 16.1553 6.0712 16.1553 7.246Z" fill="#FF4A4A"/>
<path d="M14.0263 1.502C13.7751 1.502 13.5276 1.5183 13.2848 1.54969C16.1058 1.91429 18.2921 4.32979 18.2921 7.24606C18.2921 9.20529 17.3619 11.3088 15.5273 13.4981C14.6608 14.5321 13.8025 15.3283 13.2849 15.7768C13.5722 16.0258 13.755 16.1681 13.7749 16.1835C13.8489 16.2407 13.9376 16.2693 14.0264 16.2693C14.1151 16.2693 14.2038 16.2407 14.2779 16.1835C14.3338 16.1402 15.663 15.106 17.0104 13.4981C18.845 11.3088 19.7752 9.20535 19.7752 7.24606C19.7751 4.07877 17.1962 1.502 14.0263 1.502Z" fill="#E7343F"/>
<path d="M14.1684 26.4619L16.6449 25.3509L14 22.6137V26.4979C14 26.4979 14 26.4979 14.0001 26.4979C14.0572 26.4979 14.1146 26.4861 14.1684 26.4619Z" fill="#FFDB56"/>
<path d="M25.7936 13.8947C25.7717 13.7737 25.6967 13.6689 25.5892 13.6092L25.1533 13.3667L20.1315 14.4866L27.4408 22.9698L25.7936 13.8947Z" fill="#1EA4E9"/>
<path d="M14 26.4979C14 26.4979 14 26.4979 14 26.4979V26.0874L7.7097 16.5346L7.17174 23.4742L13.8316 26.462C13.8854 26.4861 13.9428 26.4979 14 26.4979Z" fill="#1EA4E9"/>
</g>
<defs>
<clipPath id="clip0">
<rect width="28" height="28" fill="white"/>
</clipPath>
</defs>
</svg>
